#N canvas 374 125 683 321 12;
#X obj 31 21 tgl 15 0 empty empty empty 17 7 0 10 -262144 -1 -1 0 1
;
#N canvas 0 50 450 300 oscSend 0;
#X restore 31 101 pd oscSend;
#N canvas 0 50 450 300 oscRecieve 0;
#X restore 31 130 pd oscRecieve;
#X floatatom 31 157 5 0 0 0 - - -;
#X obj 31 213 oscformat PD message;
#X msg 49 184 set PD message;
#X obj 31 242 s oscOut;
#X text 179 214 creation arguments are OSC address;
#X text 161 184 set message to change OSC address;
#X text 133 44 1 Set IP Address : network address;
#X text 133 64 2 Set Ports (sending and listening);
#X text 133 83 3 Set OSC Addresses (routing osc data;
#X text 124 22 Key Settings;
#X obj 489 29 r osctrig;
#X obj 489 61 bng 15 250 50 0 empty empty empty 17 7 0 10 -262144 -1
-1;
#X obj 534 181 vline~;
#X obj 490 207 *~;
#X obj 490 238 dac~;
#X msg 31 45 \; pd dsp \$1 \;;
#X obj 489 133 mtof;
#X floatatom 489 157 5 0 0 0 - - -;
#X obj 489 180 osc~;
#X msg 489 109 35;
#X msg 534 156 0.4 1 \, 0 50 50;
#X connect 0 0 18 0;
#X connect 3 0 4 0;
#X connect 4 0 6 0;
#X connect 5 0 4 0;
#X connect 13 0 14 0;
#X connect 14 0 23 0;
#X connect 14 0 22 0;
#X connect 15 0 16 1;
#X connect 16 0 17 0;
#X connect 16 0 17 1;
#X connect 19 0 20 0;
#X connect 20 0 21 0;
#X connect 21 0 16 0;
#X connect 22 0 19 0;
#X connect 23 0 15 0;
