#N canvas 364 324 659 390 12;
#X obj 31 21 tgl 15 0 empty empty empty 17 7 0 10 -262144 -1 -1 1 1
;
#N canvas 0 50 450 300 oscSend 0;
#X restore 31 101 pd oscSend;
#N canvas 0 50 450 300 oscRecieve 0;
#X restore 31 130 pd oscRecieve;
#X floatatom 31 157 5 0 0 0 - - -;
#X obj 31 213 oscformat PD message;
#X msg 49 184 set PD message;
#X obj 31 242 s oscOut;
#X text 179 214 creation arguments are OSC address;
#X text 161 184 set message to change OSC address;
#X text 133 44 1 Set IP Address : network address;
#X text 133 64 2 Set Ports (sending and listening);
#X text 133 83 3 Set OSC Addresses (routing osc data;
#X text 124 22 Key Settings;
#X obj 448 22 r osctrig;
#X obj 448 48 bng 15 250 50 0 empty empty empty 17 7 0 10 -262144 -1
-1;
#X obj 449 292 *~;
#X obj 448 322 dac~;
#X obj 495 265 vline~;
#X obj 448 265 osc~;
#X obj 448 210 mtof;
#X floatatom 448 238 5 0 0 0 - - -;
#X obj 448 150 snapshot~;
#X floatatom 448 180 5 0 0 0 - - -;
#X obj 513 95 r start;
#X obj 513 119 metro 100;
#X msg 31 45 \; pd dsp \$1 \; start bang;
#X obj 448 120 vline~;
#X msg 495 237 0.3 1 \, 0 250 10;
#X obj 495 186 delay 100;
#X msg 448 70 62 0 10 \, 52 250 100;
#X connect 0 0 25 0;
#X connect 3 0 4 0;
#X connect 4 0 6 0;
#X connect 5 0 4 0;
#X connect 13 0 14 0;
#X connect 14 0 29 0;
#X connect 14 0 28 0;
#X connect 15 0 16 0;
#X connect 15 0 16 1;
#X connect 17 0 15 1;
#X connect 18 0 15 0;
#X connect 19 0 20 0;
#X connect 20 0 18 0;
#X connect 21 0 22 0;
#X connect 22 0 19 0;
#X connect 23 0 24 0;
#X connect 24 0 21 0;
#X connect 26 0 21 0;
#X connect 27 0 17 0;
#X connect 28 0 27 0;
#X connect 29 0 26 0;
