#N canvas 469 99 1366 715 12;
#X text 189 279 creation arguments are OSC address;
#X text 179 238 set message to change OSC address;
#X text 164 48 1 Set IP Address : network address;
#X text 164 68 2 Set Ports (sending and listening);
#X text 164 87 3 Set OSC Addresses (routing osc data;
#X text 155 26 Key Settings;
#X floatatom 43 194 5 0 0 0 - - -;
#N canvas 401 197 900 611 oscReceive 0;
#X obj 55 184 netreceive -u -b;
#X msg 78 143 listen 0;
#X text 152 143 stop listening;
#X text 64 58 packets from network;
#X text 173 177 UDP packets \, binary output, f 13;
#X obj 45 314 print;
#X obj 45 272 oscparse;
#X text 150 114 listen on port 8000;
#X obj 177 269 oscparse;
#X obj 177 293 list trim;
#X floatatom 419 352 5 0 0 0 - - -;
#X text 241 267 Parse the OSC message;
#X obj 177 319 route unity;
#X msg 66 115 listen 8000;
#X obj 66 84 loadbang;
#X floatatom 527 340 5 0 0 0 - - -;
#X floatatom 638 324 5 0 0 0 - - -;
#X obj 412 324 route splash;
#X obj 416 374 s splash;
#X obj 526 317 route collide;
#X obj 527 366 s collide;
#X obj 637 301 route pickup;
#X obj 638 351 s pickup;
#X floatatom 193 513 5 0 0 0 - - -;
#X floatatom 74 489 5 0 0 0 - - -;
#X floatatom 432 504 5 0 0 0 - - -;
#X obj 45 458 route start_metro;
#X obj 65 522 s start_metro;
#X obj 209 481 route lvl_0;
#X obj 194 541 s lvl_0;
#X floatatom 301 513 5 0 0 0 - - -;
#X obj 303 478 route lvl_1;
#X obj 308 541 s lvl_1;
#X obj 431 481 route lvl_2;
#X obj 432 531 s lvl_2;
#X floatatom 536 504 5 0 0 0 - - -;
#X floatatom 639 502 5 0 0 0 - - -;
#X obj 535 481 route lvl_3;
#X obj 545 531 s lvl_3;
#X obj 638 479 route lvl_4;
#X obj 639 529 s lvl_4;
#X connect 0 0 6 0;
#X connect 0 0 8 0;
#X connect 1 0 0 0;
#X connect 6 0 5 0;
#X connect 8 0 9 0;
#X connect 9 0 12 0;
#X connect 10 0 18 0;
#X connect 12 0 17 0;
#X connect 12 0 19 0;
#X connect 12 0 21 0;
#X connect 12 0 28 0;
#X connect 12 0 31 0;
#X connect 12 0 33 0;
#X connect 12 0 37 0;
#X connect 12 0 39 0;
#X connect 12 0 26 0;
#X connect 13 0 0 0;
#X connect 14 0 13 0;
#X connect 15 0 20 0;
#X connect 16 0 22 0;
#X connect 17 0 10 0;
#X connect 19 0 15 0;
#X connect 21 0 16 0;
#X connect 23 0 29 0;
#X connect 24 0 27 0;
#X connect 25 0 34 0;
#X connect 26 0 24 0;
#X connect 28 0 23 0;
#X connect 30 0 32 0;
#X connect 31 0 30 0;
#X connect 33 0 25 0;
#X connect 35 0 38 0;
#X connect 36 0 40 0;
#X connect 37 0 35 0;
#X connect 39 0 36 0;
#X restore 47 142 pd oscReceive;
#X obj 47 36 tgl 15 0 empty empty empty 17 7 0 10 -262144 -1 -1 1 1
;
#X msg 47 61 \; pd dsp \$1;
#X obj 44 278 oscformat PD message;
#X msg 76 239 set PD message;
#N canvas 727 97 450 300 oscSend 0;
#X msg 158 207 disconnect;
#X obj 61 253 netsend -u -b;
#X obj 59 55 list prepend send;
#X obj 59 80 list trim;
#X msg 150 175 connect 127.0.0.1 8001;
#X obj 59 29 r oscOut;
#X text 301 163 send to port 8001;
#X msg 147 148 connect localhost 8001;
#X obj 147 108 loadbang;
#X connect 0 0 1 0;
#X connect 2 0 3 0;
#X connect 3 0 1 0;
#X connect 4 0 1 0;
#X connect 5 0 2 0;
#X connect 7 0 1 0;
#X connect 8 0 7 0;
#X restore 47 118 pd oscSend;
#X obj 44 313 s oscOut;
#X obj 703 179 metro 4000;
#X obj 703 146 tgl 15 0 empty empty empty 17 7 0 10 -262144 -1 -1 1
1;
#X floatatom 770 153 5 0 0 0 - - -;
#X obj 703 209 f;
#X obj 742 209 + 1;
#X obj 770 103 loadbang;
#X text 579 68 Sequence playback: tempo increases as more rocks are
stacked.;
#X obj 659 179 == 0;
#X obj 591 109 r start_metro;
#X obj 833 134 r seq_tempo;
#X obj 40 431 loadbang;
#X obj 40 473 array set \$0-scale;
#X obj 40 494 array define \$0-scale;
#X msg 40 452 0 2.04 3.16 7.02 8.14;
#X obj 325 788 hip~ 3;
#X obj 325 810 clip~ -1 1;
#X obj 325 766 *~ 0.9;
#X obj 325 1109 dac~ 1 2;
#X obj 325 1083 *~;
#X obj 346 1015 hsl 128 16 0 0.5 0 1 empty empty VOLUME_(Master) -2
-6 0 12 -258113 -1 -1 12700 1;
#X obj 343 1038 pack f 20;
#X obj 343 1059 line~;
#X obj 409 864 re.plate~;
#X obj 695 858 loadbang;
#X obj 695 900 f \$0;
#X msg 695 879 bang;
#X obj 432 780 hsl 128 16 0 1 0 0 empty \$0-bandwidth BANDWIDTH -2
-6 0 12 -128992 -262144 -1 10160 1;
#X obj 429 822 line~;
#X floatatom 510 796 0 0 0 0 - - -;
#X msg 429 801 \$1 20;
#X obj 572 780 hsl 128 16 0 1 0 0 empty \$0-damping DAMPING -2 -6 0
12 -128992 -262144 -1 10160 1;
#X obj 569 822 line~;
#X floatatom 650 796 0 0 0 0 - - -;
#X msg 569 801 \$1 20;
#X obj 722 780 hsl 128 16 0 1 0 0 empty \$0-gain GAIN -2 -6 0 12 -128992
-262144 -1 10160 1;
#X obj 715 825 line~;
#X floatatom 796 796 0 0 0 0 - - -;
#X msg 715 804 \$1 20;
#X obj 490 877 hsl 128 16 0 1 0 0 empty \$0-drywet DRY/WET -2 -6 0
12 -128992 -262144 -1 3175 1;
#X obj 487 921 line~;
#X floatatom 568 893 0 0 0 0 - - -;
#X msg 487 900 \$1 20;
#X obj 343 849 loadbang;
#X msg 343 870 1;
#X obj 343 891 -~;
#X obj 325 939 *~;
#X obj 325 975 +~;
#X obj 409 956 *~;
#X obj 469 956 *~;
#X obj 867 533 r kick_beats;
#X obj 750 455 r mar_beats;
#X obj 703 236 s counter;
#X obj 867 457 r hrp_beats;
#X obj 325 738 catch~ \$0-M;
#X obj 752 532 r tom_beats;
#X obj 638 454 r chm_beats;
#X obj 263 522 loadbang;
#X obj 215 627 s root;
#X msg 263 549 51;
#X floatatom 215 597 5 0 0 0 - - -;
#X obj 215 568 + 0;
#X floatatom 215 537 5 0 0 0 - - -;
#X obj 215 498 tabread \$0-scale;
#X floatatom 215 468 5 0 4 0 - - -;
#X text 211 409 Sets global root pitch.;
#X text 36 407 Sets global scale.;
#X obj 215 432 r root_pitch;
#X msg 770 128 750;
#X text 610 280 LEVEL 1;
#X text 711 281 LEVEL 2;
#X text 807 282 LEVEL 3;
#X text 903 281 LEVEL 4;
#X text 516 280 LEVEL 0;
#X obj 308 449 loadbang;
#X text 631 144 START -->;
#X obj 612 299 r lvl_1;
#X obj 516 299 r lvl_0;
#X obj 711 299 r lvl_2;
#X obj 807 300 r lvl_3;
#X obj 903 299 r lvl_4;
#X text 513 365 (no rocks);
#X text 606 367 (first rock...);
#X text 902 370 (all rocks);
#X text 1046 282 RESET;
#X text 1051 363 (rocks fall);
#N canvas 323 303 642 565 set_lvl_0 0;
#X obj 60 120 s seq_tempo;
#X obj 159 76 bng 15 250 50 0 empty empty empty 17 7 0 10 -262144 -1
-1;
#X msg 60 92 750;
#X msg 190 102 0;
#X obj 202 128 s chm_beats;
#X obj 203 182 s hrp_beats;
#X obj 203 205 s mar_beats;
#X obj 203 228 s tom_beats;
#X obj 203 250 s kick_beats;
#X obj 290 121 s root_pitch;
#X obj 82 177 s chms_8va;
#X msg 82 151 4;
#X obj 291 146 s mar_harm;
#X msg 203 154 5;
#X obj 83 231 s hrp_8va;
#X msg 83 206 1;
#X obj 159 46 inlet;
#X obj 201 278 s hat_beats;
#X connect 1 0 2 0;
#X connect 1 0 3 0;
#X connect 1 0 11 0;
#X connect 1 0 13 0;
#X connect 1 0 15 0;
#X connect 2 0 0 0;
#X connect 3 0 4 0;
#X connect 3 0 6 0;
#X connect 3 0 7 0;
#X connect 3 0 8 0;
#X connect 3 0 9 0;
#X connect 3 0 12 0;
#X connect 3 0 17 0;
#X connect 11 0 10 0;
#X connect 13 0 5 0;
#X connect 15 0 14 0;
#X connect 16 0 1 0;
#X restore 516 341 pd set_lvl_0;
#N canvas 0 25 595 528 set_lvl_1 0;
#X obj 48 116 s seq_tempo;
#X obj 131 61 bng 15 250 50 0 empty empty empty 17 7 0 10 -262144 -1
-1;
#X obj 284 99 s root_pitch;
#X obj 169 110 s chm_beats;
#X obj 170 157 s hrp_beats;
#X obj 170 204 s mar_beats;
#X obj 170 250 s tom_beats;
#X obj 170 297 s kick_beats;
#X obj 48 188 s chms_8va;
#X msg 48 162 4;
#X msg 170 273 0;
#X msg 170 227 0;
#X msg 169 87 0;
#X obj 49 243 s hrp_8va;
#X msg 170 180 5;
#X msg 170 134 3;
#X msg 233 80 1;
#X msg 49 218 2;
#X obj 271 138 s mar_harm;
#X msg 48 88 500;
#X obj 131 34 inlet;
#X obj 172 350 s hat_beats;
#X msg 172 327 0;
#X connect 1 0 19 0;
#X connect 1 0 16 0;
#X connect 1 0 12 0;
#X connect 1 0 15 0;
#X connect 1 0 14 0;
#X connect 1 0 11 0;
#X connect 1 0 10 0;
#X connect 1 0 9 0;
#X connect 1 0 17 0;
#X connect 1 0 22 0;
#X connect 9 0 8 0;
#X connect 10 0 7 0;
#X connect 11 0 6 0;
#X connect 12 0 3 0;
#X connect 12 0 18 0;
#X connect 14 0 5 0;
#X connect 15 0 4 0;
#X connect 16 0 2 0;
#X connect 17 0 13 0;
#X connect 19 0 0 0;
#X connect 20 0 1 0;
#X connect 22 0 21 0;
#X restore 612 341 pd set_lvl_1;
#X obj 516 322 bng 15 250 50 0 empty empty empty 17 7 0 10 -262144
-1 -1;
#X obj 612 322 bng 15 250 50 0 empty empty empty 17 7 0 10 -262144
-1 -1;
#N canvas 0 25 721 667 set_lvl_2 0;
#X obj 38 107 s seq_tempo;
#X obj 121 52 bng 15 250 50 0 empty empty empty 17 7 0 10 -262144 -1
-1;
#X obj 274 90 s root_pitch;
#X obj 159 101 s chm_beats;
#X obj 160 148 s hrp_beats;
#X obj 160 195 s mar_beats;
#X obj 160 241 s tom_beats;
#X obj 160 288 s kick_beats;
#X msg 159 78 0;
#X obj 41 171 s hrp_8va;
#X msg 41 146 2;
#X msg 223 71 2;
#X msg 160 125 5;
#X obj 276 149 s mar_harm;
#X msg 276 123 60;
#X msg 38 79 325;
#X obj 121 22 inlet;
#X obj 161 341 s hat_beats;
#X msg 161 317 0;
#X msg 160 264 0;
#X msg 160 171 3;
#X msg 160 218 7;
#X connect 1 0 15 0;
#X connect 1 0 11 0;
#X connect 1 0 8 0;
#X connect 1 0 12 0;
#X connect 1 0 20 0;
#X connect 1 0 21 0;
#X connect 1 0 19 0;
#X connect 1 0 10 0;
#X connect 1 0 14 0;
#X connect 1 0 18 0;
#X connect 8 0 3 0;
#X connect 10 0 9 0;
#X connect 11 0 2 0;
#X connect 12 0 4 0;
#X connect 14 0 13 0;
#X connect 15 0 0 0;
#X connect 16 0 1 0;
#X connect 18 0 17 0;
#X connect 19 0 7 0;
#X connect 20 0 5 0;
#X connect 21 0 6 0;
#X restore 711 341 pd set_lvl_2;
#X obj 711 322 bng 15 250 50 0 empty empty empty 17 7 0 10 -262144
-1 -1;
#N canvas 0 25 823 774 set_lvl_3 0;
#X obj 35 111 s seq_tempo;
#X obj 118 56 bng 15 250 50 0 empty empty empty 17 7 0 10 -262144 -1
-1;
#X obj 271 94 s root_pitch;
#X obj 156 105 s chm_beats;
#X obj 157 152 s hrp_beats;
#X obj 157 199 s mar_beats;
#X obj 157 245 s tom_beats;
#X obj 157 292 s kick_beats;
#X obj 35 183 s chms_8va;
#X msg 35 157 4;
#X obj 36 238 s hrp_8va;
#X msg 36 213 2;
#X obj 273 153 s mar_harm;
#X msg 273 127 60;
#X msg 35 83 300;
#X msg 220 75 3;
#X msg 157 268 5;
#X msg 157 222 3;
#X msg 157 175 9;
#X msg 157 129 7;
#X msg 156 82 11;
#X obj 118 28 inlet;
#X obj 157 344 s hat_beats;
#X msg 157 320 0;
#X connect 1 0 14 0;
#X connect 1 0 15 0;
#X connect 1 0 20 0;
#X connect 1 0 19 0;
#X connect 1 0 18 0;
#X connect 1 0 17 0;
#X connect 1 0 16 0;
#X connect 1 0 9 0;
#X connect 1 0 11 0;
#X connect 1 0 13 0;
#X connect 1 0 23 0;
#X connect 9 0 8 0;
#X connect 11 0 10 0;
#X connect 13 0 12 0;
#X connect 14 0 0 0;
#X connect 15 0 2 0;
#X connect 16 0 7 0;
#X connect 17 0 6 0;
#X connect 18 0 5 0;
#X connect 19 0 4 0;
#X connect 20 0 3 0;
#X connect 21 0 1 0;
#X connect 23 0 22 0;
#X restore 807 341 pd set_lvl_3;
#X obj 807 323 bng 15 250 50 0 empty empty empty 17 7 0 10 -262144
-1 -1;
#N canvas 468 166 458 677 set_lvl_4 0;
#X obj 50 115 s seq_tempo;
#X obj 133 60 bng 15 250 50 0 empty empty empty 17 7 0 10 -262144 -1
-1;
#X obj 286 98 s root_pitch;
#X msg 235 79 4;
#X obj 171 109 s chm_beats;
#X obj 172 156 s hrp_beats;
#X obj 172 203 s mar_beats;
#X obj 172 249 s tom_beats;
#X obj 172 296 s kick_beats;
#X msg 172 133 13;
#X msg 172 179 11;
#X msg 172 226 9;
#X msg 172 272 7;
#X obj 50 187 s chms_8va;
#X msg 50 161 8;
#X obj 275 160 s mar_harm;
#X msg 275 134 60;
#X msg 50 87 275;
#X obj 133 31 inlet;
#X msg 171 86 5;
#X msg 172 326 15;
#X obj 172 350 s hat_beats;
#X obj 51 267 s hrp_8va;
#X msg 50 232 1;
#X connect 1 0 17 0;
#X connect 1 0 3 0;
#X connect 1 0 19 0;
#X connect 1 0 9 0;
#X connect 1 0 10 0;
#X connect 1 0 11 0;
#X connect 1 0 12 0;
#X connect 1 0 14 0;
#X connect 1 0 16 0;
#X connect 1 0 20 0;
#X connect 1 0 23 0;
#X connect 3 0 2 0;
#X connect 9 0 5 0;
#X connect 10 0 6 0;
#X connect 11 0 7 0;
#X connect 12 0 8 0;
#X connect 14 0 13 0;
#X connect 16 0 15 0;
#X connect 17 0 0 0;
#X connect 18 0 1 0;
#X connect 19 0 4 0;
#X connect 20 0 21 0;
#X connect 23 0 22 0;
#X restore 903 341 pd set_lvl_4;
#X obj 903 323 bng 15 250 50 0 empty empty empty 17 7 0 10 -262144
-1 -1;
#N canvas 0 25 825 865 reset_lvls 0;
#X obj 139 233 pack f f f;
#X obj 139 254 clone -s 1 santur 24;
#X obj 139 213 poly 24 1;
#X obj 139 275 *~ 0.5;
#X msg 139 98 0;
#X msg 177 98 2.04;
#X obj 139 56 bng 15 250 50 0 empty empty empty 17 7 0 10 -262144 -1
-1;
#X obj 224 147 r root;
#X obj 139 166 + 51;
#X obj 139 304 throw~ \$0-M;
#X obj 78 122 s lvl_0;
#X msg 221 98 3.16;
#X msg 266 98 8.14;
#X msg 199 188 110;
#X obj 37 680 cmbcym~;
#X obj 37 440 bng 17 250 50 0 empty empty TRIGGER 0 -8 0 10 -262144
-1 -1;
#X obj 37 462 i;
#X obj 84 310 vsl 17 127 1 127 0 1 empty empty VELOCITY 0 -9 0 10 -262144
-1 -1 5800 1;
#X obj 84 445 nbx 3 17 1 127 0 0 empty empty empty 0 -8 0 10 -262144
-1 -1 59 256;
#X obj 227 396 hsl 128 17 0 127 0 1 \$0-attack empty ATTACK -2 -8 0
10 -262144 -1 -1 11600 1;
#X obj 56 489 r \$0-attack;
#X msg 56 511 attack \$1;
#X obj 86 533 r \$0-decay;
#X msg 86 555 decay \$1;
#X obj 106 577 r \$0-noise;
#X msg 106 599 noise \$1;
#X msg 136 643 highpass \$1;
#X obj 136 621 r \$0-highpass;
#X obj 227 431 hsl 128 17 0 127 0 1 \$0-decay empty DECAY -2 -8 0 10
-262144 -1 -1 12700 1;
#X obj 227 466 hsl 128 17 0 127 0 1 \$0-noise empty NOISE -2 -8 0 10
-262144 -1 -1 4800 1;
#X obj 227 501 hsl 128 17 0 127 0 1 \$0-highpass empty HIGHPASS -2
-8 0 10 -262144 -1 -1 6000 1;
#X msg 224 580 210.2 320.09 379.973 539.95 549.5 799.957;
#X obj 224 663 t a;
#X obj 224 536 hradio 17 1 1 4 empty empty TUNING 0 -8 0 10 -262144
-1 -1 0;
#X obj 224 558 sel 0 1 2 3;
#X msg 255 624 205.3 369.6 304.3 522.7 1149.9 627.2;
#X msg 271 646 489.8 620.2 325.53 317.14 853.2 567.3;
#X text 223 360 PARAMETERS;
#X msg 239 602 420.2 250.7 317.8 475.9 521.43 745.321;
#X obj 37 708 throw~ \$0-M;
#X obj 139 189 + 12;
#X obj 139 29 inlet;
#X connect 0 0 1 0;
#X connect 1 0 3 0;
#X connect 2 0 0 0;
#X connect 2 1 0 1;
#X connect 2 2 0 2;
#X connect 3 0 9 0;
#X connect 4 0 8 0;
#X connect 5 0 8 0;
#X connect 6 0 13 0;
#X connect 6 0 10 0;
#X connect 6 0 15 0;
#X connect 6 0 4 0;
#X connect 6 0 5 0;
#X connect 6 0 11 0;
#X connect 6 0 12 0;
#X connect 7 0 8 1;
#X connect 8 0 40 0;
#X connect 11 0 8 0;
#X connect 12 0 8 0;
#X connect 13 0 2 1;
#X connect 14 0 39 0;
#X connect 15 0 16 0;
#X connect 16 0 14 0;
#X connect 17 0 18 0;
#X connect 18 0 16 1;
#X connect 20 0 21 0;
#X connect 21 0 14 1;
#X connect 22 0 23 0;
#X connect 23 0 14 1;
#X connect 24 0 25 0;
#X connect 25 0 14 1;
#X connect 26 0 14 1;
#X connect 27 0 26 0;
#X connect 31 0 32 0;
#X connect 32 0 14 2;
#X connect 33 0 34 0;
#X connect 34 0 31 0;
#X connect 34 1 38 0;
#X connect 34 2 35 0;
#X connect 34 3 36 0;
#X connect 35 0 32 0;
#X connect 36 0 32 0;
#X connect 38 0 32 0;
#X connect 40 0 2 0;
#X connect 41 0 6 0;
#X restore 1042 342 pd reset_lvls;
#X obj 1041 300 r reset;
#X obj 1041 324 bng 15 250 50 0 empty empty empty 17 7 0 10 -262144
-1 -1;
#X text 688 44 GLOBAL TEMPO;
#N canvas 0 25 621 593 chimes 0;
#X obj 156 66 inlet;
#X obj 161 480 outlet;
#X obj 222 481 outlet;
#X obj 230 220 euclid;
#X floatatom 243 104 5 0 0 0 - - -;
#X obj 230 251 bng 15 250 50 0 empty empty empty 17 7 0 10 -262144
-1 -1;
#X obj 198 303 * 2;
#X floatatom 131 285 5 0 0 0 - - -;
#X obj 163 176 r counter;
#X obj 269 127 loadbang;
#X msg 269 193 16;
#X obj 232 371 throw~ \$0-M;
#X obj 232 346 /~ 2;
#N canvas 2837 635 334 356 random_note 0;
#X obj 88 122 + 0;
#X obj 37 122 print;
#X obj 88 18 inlet;
#X obj 88 190 outlet;
#X obj 88 154 mtof;
#X floatatom 216 117 5 0 0 0 - - -;
#X obj 216 88 inlet;
#X obj 88 87 tabread \$0-scale;
#X obj 88 55 random 5;
#X connect 0 0 4 0;
#X connect 2 0 8 0;
#X connect 4 0 3 0;
#X connect 6 0 0 1;
#X connect 6 0 5 0;
#X connect 7 0 0 0;
#X connect 8 0 7 0;
#X restore 198 276 pd random_note;
#X obj 61 243 loadbang;
#X msg 256 157 4;
#X obj 131 231 r chms_8va;
#X obj 293 249 r root;
#X msg 280 303 32;
#X msg 61 266 2;
#X obj 231 322 mct~;
#X connect 0 0 4 0;
#X connect 3 0 5 0;
#X connect 4 0 3 1;
#X connect 4 0 2 0;
#X connect 5 0 18 0;
#X connect 5 0 13 0;
#X connect 5 0 1 0;
#X connect 6 0 20 0;
#X connect 7 0 6 1;
#X connect 8 0 3 0;
#X connect 9 0 15 0;
#X connect 9 0 10 0;
#X connect 10 0 3 3;
#X connect 12 0 11 0;
#X connect 13 0 6 0;
#X connect 14 0 19 0;
#X connect 15 0 3 2;
#X connect 16 0 7 0;
#X connect 17 0 13 1;
#X connect 18 0 20 1;
#X connect 19 0 7 0;
#X connect 20 0 12 0;
#X restore 638 479 pd chimes;
#X obj 638 503 bng 15 250 50 0 empty empty empty 17 7 0 10 -262144
-1 -1;
#X floatatom 698 503 5 0 0 0 - - -;
#N canvas 152 118 379 503 harp 0;
#X obj 143 52 inlet;
#X obj 137 417 outlet;
#X obj 209 423 outlet;
#X obj 194 316 harp~;
#X obj 192 214 euclid;
#X floatatom 205 98 5 0 0 0 - - -;
#X obj 192 245 bng 15 250 50 0 empty empty empty 17 7 0 10 -262144
-1 -1;
#X obj 160 297 * 2;
#X floatatom 93 279 5 0 0 0 - - -;
#X obj 125 170 r counter;
#X obj 231 121 loadbang;
#X msg 231 187 16;
#X msg 218 151 0;
#X obj 93 225 r hrp_8va;
#X obj 194 365 throw~ \$0-M;
#X obj 194 340 /~ 2;
#N canvas 1367 596 313 308 random_note 0;
#X obj 88 122 + 0;
#X obj 37 122 print;
#X obj 88 18 inlet;
#X obj 88 190 outlet;
#X obj 88 154 mtof;
#X floatatom 216 117 5 0 0 0 - - -;
#X obj 216 88 inlet;
#X obj 88 87 tabread \$0-scale;
#X obj 88 55 random 5;
#X connect 0 0 4 0;
#X connect 2 0 8 0;
#X connect 4 0 3 0;
#X connect 6 0 0 1;
#X connect 6 0 5 0;
#X connect 7 0 0 0;
#X connect 8 0 7 0;
#X restore 160 270 pd random_note;
#X obj 23 237 loadbang;
#X msg 242 297 32;
#X obj 255 241 r root;
#X msg 23 260 1;
#X connect 0 0 5 0;
#X connect 3 0 15 0;
#X connect 4 0 6 0;
#X connect 5 0 4 1;
#X connect 5 0 2 0;
#X connect 6 0 18 0;
#X connect 6 0 16 0;
#X connect 6 0 1 0;
#X connect 7 0 3 0;
#X connect 8 0 7 1;
#X connect 9 0 4 0;
#X connect 10 0 12 0;
#X connect 10 0 11 0;
#X connect 11 0 4 3;
#X connect 12 0 4 2;
#X connect 13 0 8 0;
#X connect 15 0 14 0;
#X connect 16 0 7 0;
#X connect 17 0 20 0;
#X connect 18 0 3 1;
#X connect 19 0 16 1;
#X connect 20 0 8 0;
#X restore 867 481 pd harp;
#X obj 867 505 bng 15 250 50 0 empty empty empty 17 7 0 10 -262144
-1 -1;
#X floatatom 929 504 5 0 0 0 - - -;
#N canvas 492 25 416 563 marimba 0;
#X obj 93 49 inlet;
#X obj 78 484 outlet;
#X obj 185 491 outlet;
#X obj 118 224 euclid;
#X floatatom 131 112 5 0 0 0 - - -;
#X obj 118 255 bng 15 250 50 0 empty empty empty 17 7 0 10 -262144
-1 -1;
#X obj 118 345 marimba~;
#X obj 218 345 marimba~;
#X obj 218 320 * 1.5;
#X floatatom 271 321 5 0 0 0 - - -;
#X obj 157 134 loadbang;
#X msg 157 200 16;
#X msg 144 164 1;
#X obj 271 298 r mar_harm;
#X obj 57 187 r counter;
#X obj 118 376 throw~ \$0-M;
#X msg 171 320 80;
#N canvas 995 507 313 308 random_note 0;
#X obj 88 122 + 0;
#X obj 37 122 print;
#X obj 88 18 inlet;
#X obj 88 190 outlet;
#X obj 88 154 mtof;
#X floatatom 216 117 5 0 0 0 - - -;
#X obj 216 88 inlet;
#X obj 88 87 tabread \$0-scale;
#X obj 88 55 random 5;
#X connect 0 0 4 0;
#X connect 2 0 8 0;
#X connect 4 0 3 0;
#X connect 6 0 0 1;
#X connect 6 0 5 0;
#X connect 7 0 0 0;
#X connect 8 0 7 0;
#X restore 118 286 pd random_note;
#X obj 213 257 r root;
#X connect 0 0 4 0;
#X connect 3 0 5 0;
#X connect 4 0 3 1;
#X connect 4 0 2 0;
#X connect 5 0 16 0;
#X connect 5 0 17 0;
#X connect 5 0 1 0;
#X connect 6 0 15 0;
#X connect 7 0 15 0;
#X connect 8 0 7 0;
#X connect 9 0 7 1;
#X connect 10 0 12 0;
#X connect 10 0 11 0;
#X connect 11 0 3 3;
#X connect 12 0 3 2;
#X connect 13 0 9 0;
#X connect 14 0 3 0;
#X connect 16 0 6 1;
#X connect 17 0 6 0;
#X connect 17 0 8 0;
#X connect 18 0 17 1;
#X restore 750 479 pd marimba;
#X obj 750 504 bng 15 250 50 0 empty empty empty 17 7 0 10 -262144
-1 -1;
#X floatatom 814 503 5 0 0 0 - - -;
#N canvas 0 25 487 609 toms 0;
#X obj 107 16 inlet;
#X obj 28 538 outlet;
#X obj 124 540 outlet;
#X obj 224 269 hsl 128 15 70 500 1 1 empty empty FREQUENCY -2 -8 0
10 -262144 -1 -1 12700 1;
#X obj 245 339 hsl 128 15 0 1 0 1 empty empty DAMPING -2 -8 0 10 -262144
-1 -1 2500 1;
#X obj 256 374 hsl 128 15 -1 1 0 1 empty empty APF-GAIN -2 -8 0 10
-262144 -1 -1 7200 1;
#X obj 266 409 hsl 128 15 70 500 1 1 empty empty APF-FREQUENCY -2 -8
0 10 -262144 -1 -1 8400 1;
#X obj 235 304 hsl 128 15 0.5 1 1 1 empty empty FEEDBACK -2 -8 0 10
-262144 -1 -1 12100 1;
#X obj 285 469 tgl 15 1 empty empty RESET 17 7 0 10 -262144 -1 -1 1
1;
#X obj 277 444 hsl 128 15 0.001 1 1 1 empty empty NOISE-LEVEL -2 -8
0 10 -262144 -1 -1 4500 1;
#X obj 211 490 mymembrane~;
#X obj 181 172 euclid;
#X floatatom 194 48 5 0 0 0 - - -;
#X obj 181 203 bng 15 250 50 0 empty empty empty 17 7 0 10 -262144
-1 -1;
#X obj 220 77 loadbang;
#X msg 220 143 16;
#X obj 124 133 r counter;
#X msg 207 107 3;
#X obj 211 517 throw~ \$0-M;
#X obj 221 233 * 2;
#N canvas 2933 596 313 308 random_note 0;
#X obj 88 122 + 0;
#X obj 37 122 print;
#X obj 88 18 inlet;
#X obj 88 190 outlet;
#X obj 88 154 mtof;
#X floatatom 216 117 5 0 0 0 - - -;
#X obj 216 88 inlet;
#X obj 88 87 tabread \$0-scale;
#X obj 88 55 random 5;
#X connect 0 0 4 0;
#X connect 2 0 8 0;
#X connect 4 0 3 0;
#X connect 6 0 0 1;
#X connect 6 0 5 0;
#X connect 7 0 0 0;
#X connect 8 0 7 0;
#X restore 221 203 pd random_note;
#X obj 316 175 r root;
#X msg 181 233 72;
#X connect 0 0 12 0;
#X connect 3 0 10 1;
#X connect 4 0 10 3;
#X connect 5 0 10 4;
#X connect 6 0 10 5;
#X connect 7 0 10 2;
#X connect 8 0 10 7;
#X connect 9 0 10 6;
#X connect 10 0 18 0;
#X connect 11 0 13 0;
#X connect 11 0 20 0;
#X connect 12 0 11 1;
#X connect 12 0 2 0;
#X connect 13 0 22 0;
#X connect 13 0 1 0;
#X connect 14 0 17 0;
#X connect 14 0 15 0;
#X connect 15 0 11 3;
#X connect 16 0 11 0;
#X connect 17 0 11 2;
#X connect 19 0 3 0;
#X connect 20 0 19 0;
#X connect 21 0 20 1;
#X connect 22 0 10 0;
#X restore 752 557 pd toms;
#X obj 752 585 bng 15 250 50 0 empty empty empty 17 7 0 10 -262144
-1 -1;
#X floatatom 816 583 5 0 0 0 - - -;
#N canvas 0 25 433 597 kick 0;
#X obj 85 20 inlet;
#X obj 68 518 outlet;
#X obj 198 526 outlet;
#X obj 172 226 hsl 128 15 70 500 1 1 empty empty FREQUENCY -2 -8 0
10 -262144 -1 -1 3300 1;
#X obj 193 290 hsl 128 15 0 1 0 1 empty empty DAMPING -2 -8 0 10 -262144
-1 -1 6100 1;
#X obj 204 323 hsl 128 15 -1 1 0 1 empty empty APF-GAIN -2 -8 0 10
-262144 -1 -1 12500 1;
#X obj 214 358 hsl 128 15 70 500 1 1 empty empty APF-FREQUENCY -2 -8
0 10 -262144 -1 -1 12700 1;
#X obj 183 258 hsl 128 15 0.5 1 1 1 empty empty FEEDBACK -2 -8 0 10
-262144 -1 -1 12200 1;
#X obj 233 414 tgl 15 1 empty empty RESET 17 7 0 10 -262144 -1 -1 1
1;
#X obj 225 391 hsl 128 15 0.001 1 1 1 empty empty NOISE-LEVEL -2 -8
0 10 -262144 -1 -1 2800 1;
#X obj 159 435 mymembrane~;
#X obj 94 193 euclid;
#X floatatom 107 69 5 0 0 0 - - -;
#X obj 94 224 bng 15 250 50 0 empty empty empty 17 7 0 10 -262144 -1
-1;
#X obj 169 153 mtof;
#X msg 169 128 51;
#X obj 133 98 loadbang;
#X msg 120 128 2;
#X msg 133 164 16;
#X obj 37 154 r counter;
#X obj 159 462 throw~ \$0-M;
#X obj 169 183 * 0.75;
#X msg 94 254 100;
#X connect 0 0 12 0;
#X connect 3 0 10 1;
#X connect 4 0 10 3;
#X connect 5 0 10 4;
#X connect 6 0 10 5;
#X connect 7 0 10 2;
#X connect 8 0 10 7;
#X connect 9 0 10 6;
#X connect 10 0 20 0;
#X connect 11 0 13 0;
#X connect 12 0 11 1;
#X connect 12 0 2 0;
#X connect 13 0 22 0;
#X connect 13 0 1 0;
#X connect 14 0 21 0;
#X connect 15 0 14 0;
#X connect 16 0 17 0;
#X connect 16 0 18 0;
#X connect 16 0 15 0;
#X connect 17 0 11 2;
#X connect 18 0 11 3;
#X connect 19 0 11 0;
#X connect 21 0 3 0;
#X connect 22 0 10 0;
#X restore 867 557 pd kick;
#X obj 867 585 bng 15 250 50 0 empty empty empty 17 7 0 10 -262144
-1 -1;
#X floatatom 925 584 5 0 0 0 - - -;
#X text 535 719 REVERB / OUTPUT;
#X text 713 426 INSTRUMENT SEQUENCER;
#X text 153 382 SCALE & ROOT;
#X text 289 470 this also indicates how many rocks are stacked.;
#N canvas 0 25 491 943 hi_hats 0;
#X obj 49 19 inlet;
#X obj 37 877 outlet;
#X obj 124 880 outlet;
#N canvas 1075 260 689 665 hihat 0;
#X obj 430 31 inlet;
#X obj 371 627 outlet~;
#X obj 386 113 loadbang;
#X obj 386 155 /;
#N canvas 1164 679 371 206 allpass100ms 0;
#X obj 12 31 inlet~;
#X obj 12 92 +~;
#X obj 27 70 *~;
#X obj 232 53 inlet;
#X obj 232 75 * -1;
#X obj 187 109 *~;
#X obj 172 131 +~;
#X obj 172 153 outlet~;
#X text 12 173 0 - 100 mSec allpass;
#X text 232 33 gain;
#X text 102 11 time;
#X text 12 11 sound;
#X obj 12 153 delwrite~ \$0-short-4 100;
#X obj 248 118 inlet;
#X msg 248 139 clear;
#X obj 102 31 inlet;
#X obj 102 53 delread~ \$0-short-4;
#X connect 0 0 1 0;
#X connect 1 0 5 0;
#X connect 1 0 12 0;
#X connect 2 0 1 1;
#X connect 3 0 2 1;
#X connect 3 0 4 0;
#X connect 4 0 5 1;
#X connect 5 0 6 1;
#X connect 6 0 7 0;
#X connect 13 0 14 0;
#X connect 14 0 12 0;
#X connect 15 0 16 0;
#X connect 16 0 2 0;
#X connect 16 0 6 0;
#X restore 371 304 pd allpass100ms;
#X obj 128 164 vline~;
#X obj 457 136 s \$0-hht-trg;
#X obj 128 59 r \$0-hht-trg;
#X obj 214 135 r \$0-hht-trg;
#X msg 214 156 seed 1234;
#X obj 214 178 noise~;
#X obj 128 206 *~;
#X obj 458 283 r \$0-hht-trg;
#X msg 471 545 clear;
#X obj 400 218 loadbang;
#X msg 400 261 1000 \$1;
#X obj 400 282 /;
#X obj 471 523 r \$0-hht-trg;
#N canvas 1164 679 371 206 allpass100ms 0;
#X obj 12 31 inlet~;
#X obj 12 92 +~;
#X obj 27 70 *~;
#X obj 232 53 inlet;
#X obj 232 75 * -1;
#X obj 187 109 *~;
#X obj 172 131 +~;
#X obj 172 153 outlet~;
#X text 12 173 0 - 100 mSec allpass;
#X text 232 33 gain;
#X text 102 11 time;
#X text 12 11 sound;
#X obj 248 118 inlet;
#X msg 248 139 clear;
#X obj 102 31 inlet;
#X obj 12 153 delwrite~ \$0-short-3 100;
#X obj 102 53 delread~ \$0-short-3;
#X connect 0 0 1 0;
#X connect 1 0 5 0;
#X connect 1 0 15 0;
#X connect 2 0 1 1;
#X connect 3 0 2 1;
#X connect 3 0 4 0;
#X connect 4 0 5 1;
#X connect 5 0 6 1;
#X connect 6 0 7 0;
#X connect 12 0 13 0;
#X connect 13 0 15 0;
#X connect 14 0 16 0;
#X connect 16 0 2 0;
#X connect 16 0 6 0;
#X restore 371 411 pd allpass100ms;
#X obj 400 325 loadbang;
#X msg 400 368 1000 \$1;
#X obj 400 389 /;
#N canvas 1164 679 371 206 allpass100ms 0;
#X obj 12 31 inlet~;
#X obj 12 92 +~;
#X obj 27 70 *~;
#X obj 232 53 inlet;
#X obj 232 75 * -1;
#X obj 187 109 *~;
#X obj 172 131 +~;
#X obj 172 153 outlet~;
#X text 12 173 0 - 100 mSec allpass;
#X text 232 33 gain;
#X text 102 11 time;
#X text 12 11 sound;
#X obj 248 118 inlet;
#X msg 248 139 clear;
#X obj 102 31 inlet;
#X obj 12 153 delwrite~ \$0-short-2 100;
#X obj 102 53 delread~ \$0-short-2;
#X connect 0 0 1 0;
#X connect 1 0 5 0;
#X connect 1 0 15 0;
#X connect 2 0 1 1;
#X connect 3 0 2 1;
#X connect 3 0 4 0;
#X connect 4 0 5 1;
#X connect 5 0 6 1;
#X connect 6 0 7 0;
#X connect 12 0 13 0;
#X connect 13 0 15 0;
#X connect 14 0 16 0;
#X connect 16 0 2 0;
#X connect 16 0 6 0;
#X restore 371 518 pd allpass100ms;
#X obj 400 432 loadbang;
#X msg 400 475 1000 \$1;
#X obj 400 496 /;
#X msg 386 134 1000 1142;
#X obj 12 144 vline~;
#X obj 12 206 *~;
#X msg 400 346 647;
#X obj 371 283 +~;
#X msg 400 453 806;
#X obj 457 94 t b f;
#X obj 484 115 s \$0-hht-vel;
#X obj 300 108 r \$0-hht-vel;
#X obj 12 269 *~;
#X obj 300 129 - 1;
#X obj 300 150 / 126;
#X msg 300 171 1 \$1;
#X obj 300 192 -;
#X obj 300 234 + 100;
#X obj 300 255 dbtorms;
#X obj 567 94 t b f;
#X obj 594 115 s \$0-hht-vel;
#X obj 567 136 s \$0-ohh-trg;
#X obj 386 197 *~ 0.5;
#X obj 498 162 r \$0-ohh-trg;
#X obj 12 80 r \$0-ohh-trg;
#X msg 429 453 -0.5;
#X msg 429 346 0.55;
#X msg 498 183 0.9;
#X msg 578 183 0.7;
#X msg 12 101 1 10 \, 0 2500 10;
#X obj 557 503 env~;
#X obj 557 524 change;
#X obj 557 545 sel 0;
#X msg 557 566 0;
#X msg 491 568 1;
#X obj 557 587 switch~ 1 1 1;
#X obj 578 162 r \$0-hht-trg;
#X obj 458 263 r \$0-ohh-trg;
#X obj 471 503 r \$0-ohh-trg;
#X msg 128 101 0.95 4 \, 0 50 4;
#X obj 386 176 delread~ \$0-hih-1;
#X obj 471 615 delwrite~ \$0-hih-1;
#X obj 128 185 pow~ 6;
#X msg 400 239 1531;
#X msg 71 159 clear;
#X msg 12 123 1 10 \, 0 150 10;
#X msg 224 72 2 \$1;
#X obj 224 93 pow;
#X msg 128 143 1 1 \, 0 \$2 1;
#X obj 128 80 pack f f;
#X obj 224 51 * 2;
#X obj 224 114 * 20;
#X msg 429 239 0.5;
#X obj 12 227 hip~ 11025;
#X obj 128 227 hip~ 8820;
#X obj 72 192 pow~ 60;
#X obj 13 248 hip~ 4410;
#X obj 371 559 lop~ 6500;
#X obj 371 580 hip~ 200;
#X obj 371 601 hip~ 100;
#X obj 300 213 * -18;
#X obj 430 52 clip 0 127;
#X obj 430 73 sel 0;
#X obj 540 31 inlet;
#X obj 540 52 clip 0 127;
#X obj 540 73 sel 0;
#X text 430 11 Closed Hihat;
#X text 540 11 Open Hihat;
#X obj 12 186 lop~ 10;
#X obj 12 165 pow~ 4;
#X connect 0 0 84 0;
#X connect 2 0 26 0;
#X connect 3 0 63 0;
#X connect 4 0 18 0;
#X connect 5 0 65 0;
#X connect 7 0 68 0;
#X connect 7 0 67 0;
#X connect 7 0 72 0;
#X connect 8 0 9 0;
#X connect 9 0 10 0;
#X connect 10 0 11 1;
#X connect 10 0 78 0;
#X connect 11 0 77 0;
#X connect 12 0 4 3;
#X connect 12 0 18 3;
#X connect 12 0 22 3;
#X connect 13 0 57 0;
#X connect 13 0 64 0;
#X connect 13 0 80 0;
#X connect 13 0 81 0;
#X connect 13 0 82 0;
#X connect 14 0 66 0;
#X connect 14 0 75 0;
#X connect 15 0 16 0;
#X connect 16 0 4 1;
#X connect 17 0 13 0;
#X connect 18 0 22 0;
#X connect 19 0 29 0;
#X connect 19 0 49 0;
#X connect 20 0 21 0;
#X connect 21 0 18 1;
#X connect 22 0 80 0;
#X connect 23 0 31 0;
#X connect 23 0 48 0;
#X connect 24 0 25 0;
#X connect 25 0 22 1;
#X connect 26 0 3 0;
#X connect 27 0 92 0;
#X connect 28 0 76 0;
#X connect 29 0 20 0;
#X connect 30 0 4 0;
#X connect 31 0 24 0;
#X connect 32 0 6 0;
#X connect 32 1 33 0;
#X connect 34 0 36 0;
#X connect 35 0 30 0;
#X connect 36 0 37 0;
#X connect 37 0 38 0;
#X connect 37 0 73 0;
#X connect 38 0 39 0;
#X connect 39 0 83 0;
#X connect 40 0 41 0;
#X connect 41 0 35 1;
#X connect 42 0 44 0;
#X connect 42 1 43 0;
#X connect 45 0 30 1;
#X connect 46 0 50 0;
#X connect 47 0 52 0;
#X connect 47 0 62 0;
#X connect 47 0 67 0;
#X connect 48 0 22 2;
#X connect 49 0 18 2;
#X connect 50 0 45 1;
#X connect 51 0 45 1;
#X connect 52 0 27 0;
#X connect 53 0 54 0;
#X connect 54 0 55 0;
#X connect 55 0 56 0;
#X connect 56 0 58 0;
#X connect 57 0 58 0;
#X connect 59 0 51 0;
#X connect 60 0 4 3;
#X connect 60 0 22 3;
#X connect 60 0 18 3;
#X connect 61 0 13 0;
#X connect 62 0 5 0;
#X connect 63 0 45 0;
#X connect 65 0 11 0;
#X connect 66 0 15 0;
#X connect 67 0 91 0;
#X connect 68 0 27 0;
#X connect 69 0 70 0;
#X connect 70 0 74 0;
#X connect 71 0 5 0;
#X connect 72 0 71 0;
#X connect 73 0 69 0;
#X connect 74 0 72 1;
#X connect 75 0 4 2;
#X connect 76 0 79 0;
#X connect 77 0 79 0;
#X connect 78 0 28 1;
#X connect 79 0 35 0;
#X connect 80 0 81 0;
#X connect 81 0 82 0;
#X connect 82 0 53 0;
#X connect 82 0 64 0;
#X connect 82 0 1 0;
#X connect 83 0 40 0;
#X connect 84 0 85 0;
#X connect 85 1 32 0;
#X connect 86 0 87 0;
#X connect 87 0 88 0;
#X connect 88 1 42 0;
#X connect 91 0 28 0;
#X connect 92 0 91 0;
#X restore 22 755 pd hihat;
#X obj 22 708 bng 16 250 50 0 empty empty CLOSED 0 -9 0 10 -257985
-1 -1;
#X obj 67 708 bng 16 250 50 0 empty empty OPEN 0 -9 0 10 -261123 -1
-1;
#X obj 22 729 i;
#X obj 67 729 i;
#X obj 234 527 sel 0;
#X msg 234 548 seed 145;
#X obj 214 569 random 127;
#X obj 214 590 + 1;
#X obj 195 506 t b b f;
#X obj 195 611 random 101;
#X obj 195 653 pack f f;
#X obj 195 674 route 0 1;
#X obj 195 632 > 50;
#X msg 234 590 seed 147;
#X obj 81 534 vsl 16 127 1 127 0 1 empty empty CLOSED 0 -9 0 10 -257985
-1 -1 2700 1;
#X obj 81 669 nbx 3 16 1 127 0 1 empty empty empty 0 -8 0 10 -257985
-1 -1 28 256;
#X obj 131 534 vsl 16 127 1 127 0 1 empty empty OPEN 0 -9 0 10 -261123
-1 -1 3300 1;
#X obj 131 669 nbx 3 16 1 127 0 1 empty empty empty 0 -8 0 10 -261123
-1 -1 34 256;
#X obj 22 780 throw~ \$0-M;
#X obj 120 297 euclid;
#X floatatom 133 185 5 0 0 0 - - -;
#X obj 159 207 loadbang;
#X msg 159 273 16;
#X obj 59 260 r counter;
#X msg 146 237 5;
#X obj 118 331 bng 15 250 50 0 empty empty empty 17 7 0 10 -262144
-1 -1;
#X obj 195 444 i;
#X obj 195 465 % 16;
#X obj 225 444 + 1;
#X connect 0 0 24 0;
#X connect 3 0 22 0;
#X connect 4 0 6 0;
#X connect 5 0 7 0;
#X connect 6 0 3 0;
#X connect 7 0 3 1;
#X connect 8 0 9 0;
#X connect 8 0 17 0;
#X connect 9 0 10 0;
#X connect 10 0 11 0;
#X connect 11 0 14 1;
#X connect 12 0 13 0;
#X connect 12 1 10 0;
#X connect 12 2 8 0;
#X connect 13 0 16 0;
#X connect 14 0 15 0;
#X connect 15 0 6 0;
#X connect 15 1 7 0;
#X connect 16 0 14 0;
#X connect 17 0 13 0;
#X connect 18 0 19 0;
#X connect 19 0 6 1;
#X connect 20 0 21 0;
#X connect 21 0 7 1;
#X connect 23 0 29 0;
#X connect 23 0 30 0;
#X connect 24 0 23 1;
#X connect 24 0 2 0;
#X connect 25 0 28 0;
#X connect 25 0 26 0;
#X connect 26 0 23 3;
#X connect 27 0 23 0;
#X connect 28 0 23 2;
#X connect 29 0 1 0;
#X connect 30 0 31 0;
#X connect 31 0 32 0;
#X connect 31 0 12 0;
#X connect 32 0 30 1;
#X restore 640 559 pd hi_hats;
#X obj 640 531 r hat_beats;
#X obj 640 585 bng 15 250 50 0 empty empty empty 17 7 0 10 -262144
-1 -1;
#X floatatom 699 584 5 0 0 0 - - -;
#X text 253 470 <----;
#X obj 596 179 s lvl_0;
#X text 1079 420 SOUND FX;
#N canvas 0 25 333 485 pickup 0;
#X obj 70 49 inlet;
#X obj 58 378 outlet;
#X obj 72 109 bng 15 250 50 0 empty empty empty 17 7 0 10 -262144 -1
-1;
#X obj 73 314 *~;
#X obj 119 287 vline~;
#X obj 119 133 delay 100;
#X obj 72 287 osc~;
#X obj 72 232 mtof;
#X floatatom 72 260 5 0 0 0 - - -;
#X msg 119 260 0.2 1 \, 0 200 100;
#X msg 72 164 62;
#X msg 119 164 63;
#X obj 69 352 dac~;
#X connect 0 0 2 0;
#X connect 2 0 5 0;
#X connect 2 0 10 0;
#X connect 2 0 1 0;
#X connect 3 0 12 0;
#X connect 3 0 12 1;
#X connect 4 0 3 1;
#X connect 5 0 11 0;
#X connect 6 0 3 0;
#X connect 7 0 8 0;
#X connect 8 0 6 0;
#X connect 9 0 4 0;
#X connect 10 0 7 0;
#X connect 10 0 9 0;
#X connect 11 0 9 0;
#X connect 11 0 7 0;
#X restore 1088 483 pd pickup;
#X obj 1088 507 bng 15 250 50 0 empty empty empty 17 7 0 10 -262144
-1 -1;
#X obj 1088 456 r pickup;
#X obj 1234 491 r drop;
#N canvas 0 25 457 552 drop 0;
#X obj 103 68 inlet;
#X obj 92 448 outlet;
#X obj 101 114 bng 15 250 50 0 empty empty empty 17 7 0 10 -262144
-1 -1;
#X obj 102 358 *~;
#X obj 101 388 dac~;
#X obj 148 331 vline~;
#X obj 101 331 osc~;
#X obj 101 276 mtof;
#X floatatom 101 304 5 0 0 0 - - -;
#X obj 101 216 snapshot~;
#X floatatom 101 246 5 0 0 0 - - -;
#X obj 166 161 r start;
#X obj 166 185 metro 100;
#X obj 101 186 vline~;
#X msg 148 303 0.3 1 \, 0 250 10;
#X obj 148 252 delay 100;
#X msg 101 136 62 0 10 \, 52 250 100;
#X connect 0 0 2 0;
#X connect 2 0 16 0;
#X connect 2 0 15 0;
#X connect 2 0 1 0;
#X connect 3 0 4 0;
#X connect 3 0 4 1;
#X connect 5 0 3 1;
#X connect 6 0 3 0;
#X connect 7 0 8 0;
#X connect 8 0 6 0;
#X connect 9 0 10 0;
#X connect 10 0 7 0;
#X connect 11 0 12 0;
#X connect 12 0 9 0;
#X connect 13 0 9 0;
#X connect 14 0 5 0;
#X connect 15 0 14 0;
#X connect 16 0 13 0;
#X restore 1234 518 pd drop;
#X obj 1234 542 bng 15 250 50 0 empty empty empty 17 7 0 10 -262144
-1 -1;
#X obj 1038 586 bng 15 250 50 0 empty empty empty 17 7 0 10 -262144
-1 -1;
#X obj 1038 535 r collide;
#N canvas 0 25 457 552 collide 0;
#X obj 103 68 inlet;
#X obj 92 448 outlet;
#X obj 81 160 bng 15 250 50 0 empty empty empty 17 7 0 10 -262144 -1
-1;
#X obj 166 289 vline~;
#X obj 122 315 *~;
#X obj 123 344 dac~;
#X obj 121 241 mtof;
#X floatatom 121 265 5 0 0 0 - - -;
#X obj 121 288 osc~;
#X msg 121 217 35;
#X msg 166 264 0.4 1 \, 0 50 50;
#X connect 0 0 2 0;
#X connect 2 0 10 0;
#X connect 2 0 9 0;
#X connect 2 0 1 0;
#X connect 3 0 4 1;
#X connect 4 0 5 0;
#X connect 4 0 5 1;
#X connect 6 0 7 0;
#X connect 7 0 8 0;
#X connect 8 0 4 0;
#X connect 9 0 6 0;
#X connect 10 0 3 0;
#X restore 1038 562 pd collide;
#X obj 1129 587 bng 15 250 50 0 empty empty empty 17 7 0 10 -262144
-1 -1;
#X obj 1129 536 r splash;
#N canvas 0 25 457 552 splash 0;
#X obj 103 68 inlet;
#X obj 92 448 outlet;
#X obj 120 129 bng 15 250 50 0 empty empty empty 17 7 0 10 -262144
-1 -1;
#X obj 121 334 *~;
#X obj 120 364 dac~;
#X obj 167 307 vline~;
#X obj 167 153 delay 100;
#X obj 120 307 osc~;
#X obj 120 252 mtof;
#X floatatom 120 280 5 0 0 0 - - -;
#X obj 65 307 noise~;
#X msg 167 280 0.2 1 \, 0 200 25;
#X msg 120 184 80;
#X msg 167 184 50;
#X connect 0 0 2 0;
#X connect 2 0 6 0;
#X connect 2 0 12 0;
#X connect 2 0 1 0;
#X connect 3 0 4 0;
#X connect 3 0 4 1;
#X connect 5 0 3 1;
#X connect 6 0 13 0;
#X connect 7 0 3 0;
#X connect 8 0 9 0;
#X connect 9 0 7 0;
#X connect 10 0 3 0;
#X connect 11 0 5 0;
#X connect 12 0 8 0;
#X connect 12 0 11 0;
#X connect 13 0 11 0;
#X connect 13 0 8 0;
#X restore 1129 563 pd splash;
#X msg 695 921 \; \$1-bandwidth 0.8 \; \$1-damping 0.8 \; \$1-gain
0.8 \; \$1-drywet 0.25 \;;
#X connect 6 0 10 0;
#X connect 8 0 9 0;
#X connect 10 0 13 0;
#X connect 11 0 10 0;
#X connect 14 0 17 0;
#X connect 15 0 14 0;
#X connect 15 0 21 0;
#X connect 15 0 137 0;
#X connect 16 0 14 1;
#X connect 17 0 18 0;
#X connect 17 0 65 0;
#X connect 18 0 17 1;
#X connect 19 0 81 0;
#X connect 21 0 17 1;
#X connect 22 0 15 0;
#X connect 22 0 81 0;
#X connect 23 0 16 0;
#X connect 24 0 27 0;
#X connect 27 0 25 0;
#X connect 28 0 29 0;
#X connect 29 0 59 0;
#X connect 29 0 36 0;
#X connect 30 0 28 0;
#X connect 32 0 31 0;
#X connect 32 0 31 1;
#X connect 33 0 34 0;
#X connect 34 0 35 0;
#X connect 35 0 32 1;
#X connect 36 0 61 0;
#X connect 36 1 62 0;
#X connect 37 0 39 0;
#X connect 38 0 151 0;
#X connect 39 0 38 0;
#X connect 40 0 42 0;
#X connect 40 0 43 0;
#X connect 41 0 36 1;
#X connect 43 0 41 0;
#X connect 44 0 46 0;
#X connect 44 0 47 0;
#X connect 45 0 36 2;
#X connect 47 0 45 0;
#X connect 48 0 50 0;
#X connect 48 0 51 0;
#X connect 49 0 36 3;
#X connect 51 0 49 0;
#X connect 52 0 54 0;
#X connect 52 0 55 0;
#X connect 53 0 58 1;
#X connect 53 0 61 1;
#X connect 53 0 62 1;
#X connect 55 0 53 0;
#X connect 56 0 57 0;
#X connect 57 0 58 0;
#X connect 58 0 59 1;
#X connect 59 0 60 0;
#X connect 60 0 32 0;
#X connect 61 0 60 1;
#X connect 62 0 60 1;
#X connect 63 0 125 0;
#X connect 64 0 119 0;
#X connect 66 0 116 0;
#X connect 67 0 30 0;
#X connect 68 0 122 0;
#X connect 69 0 113 0;
#X connect 70 0 72 0;
#X connect 72 0 74 1;
#X connect 73 0 71 0;
#X connect 74 0 73 0;
#X connect 75 0 74 0;
#X connect 76 0 75 0;
#X connect 77 0 76 0;
#X connect 80 0 77 0;
#X connect 81 0 16 0;
#X connect 87 0 77 0;
#X connect 89 0 102 0;
#X connect 90 0 101 0;
#X connect 91 0 104 0;
#X connect 92 0 106 0;
#X connect 93 0 108 0;
#X connect 101 0 99 0;
#X connect 102 0 100 0;
#X connect 104 0 103 0;
#X connect 106 0 105 0;
#X connect 108 0 107 0;
#X connect 110 0 111 0;
#X connect 111 0 109 0;
#X connect 113 0 114 0;
#X connect 113 1 115 0;
#X connect 116 0 117 0;
#X connect 116 1 118 0;
#X connect 119 0 120 0;
#X connect 119 1 121 0;
#X connect 122 0 123 0;
#X connect 122 1 124 0;
#X connect 125 0 126 0;
#X connect 125 1 127 0;
#X connect 132 0 134 0;
#X connect 132 1 135 0;
#X connect 133 0 132 0;
#X connect 139 0 140 0;
#X connect 141 0 139 0;
#X connect 142 0 143 0;
#X connect 143 0 144 0;
#X connect 146 0 147 0;
#X connect 147 0 145 0;
#X connect 149 0 150 0;
#X connect 150 0 148 0;
