#N canvas 2017 93 632 369 12;
#X obj 31 21 tgl 15 0 empty empty empty 17 7 0 10 -262144 -1 -1 1 1
;
#X msg 31 45 \; pd dsp \$1;
#N canvas 0 50 450 300 oscSend 0;
#X restore 31 88 pd oscSend;
#N canvas 0 50 450 300 oscRecieve 0;
#X restore 31 117 pd oscRecieve;
#X floatatom 31 144 5 0 0 0 - - -;
#X obj 31 200 oscformat PD message;
#X msg 49 171 set PD message;
#X obj 31 231 s oscOut;
#X text 179 201 creation arguments are OSC address;
#X text 161 171 set message to change OSC address;
#X text 133 44 1 Set IP Address : network address;
#X text 133 64 2 Set Ports (sending and listening);
#X text 133 83 3 Set OSC Addresses (routing osc data;
#X text 124 22 Key Settings;
#X obj 447 45 r osctrig;
#X obj 447 77 bng 15 250 50 0 empty empty empty 17 7 0 10 -262144 -1
-1;
#X obj 448 282 *~;
#X obj 447 312 dac~;
#X obj 494 255 vline~;
#X obj 494 101 delay 100;
#X obj 447 255 osc~;
#X obj 447 200 mtof;
#X floatatom 447 228 5 0 0 0 - - -;
#X msg 494 228 0.2 1 \, 0 200 100;
#X msg 447 132 62;
#X msg 494 132 63;
#X connect 0 0 1 0;
#X connect 4 0 5 0;
#X connect 5 0 7 0;
#X connect 6 0 5 0;
#X connect 14 0 15 0;
#X connect 15 0 19 0;
#X connect 15 0 24 0;
#X connect 16 0 17 0;
#X connect 16 0 17 1;
#X connect 18 0 16 1;
#X connect 19 0 25 0;
#X connect 20 0 16 0;
#X connect 21 0 22 0;
#X connect 22 0 20 0;
#X connect 23 0 18 0;
#X connect 24 0 21 0;
#X connect 24 0 23 0;
#X connect 25 0 23 0;
#X connect 25 0 21 0;
