#N canvas 119 65 658 345 12;
#X obj 31 21 tgl 15 0 empty empty empty 17 7 0 10 -262144 -1 -1 1 1
;
#N canvas 0 50 450 300 oscSend 0;
#X restore 31 88 pd oscSend;
#N canvas 0 50 450 300 oscRecieve 0;
#X restore 31 117 pd oscRecieve;
#X floatatom 31 144 5 0 0 0 - - -;
#X obj 31 200 oscformat PD message;
#X msg 49 171 set PD message;
#X obj 31 229 s oscOut;
#X text 179 201 creation arguments are OSC address;
#X text 161 171 set message to change OSC address;
#X text 133 44 1 Set IP Address : network address;
#X text 133 64 2 Set Ports (sending and listening);
#X text 133 83 3 Set OSC Addresses (routing osc data;
#X text 124 22 Key Settings;
#X msg 31 45 \; pd dsp \$1 \;;
#X obj 469 25 r osctrig;
#X obj 469 57 bng 15 250 50 0 empty empty empty 17 7 0 10 -262144 -1
-1;
#X obj 470 262 *~;
#X obj 469 292 dac~;
#X obj 516 235 vline~;
#X obj 516 81 delay 100;
#X obj 469 235 osc~;
#X obj 469 180 mtof;
#X floatatom 469 208 5 0 0 0 - - -;
#X obj 414 235 noise~;
#X msg 516 208 0.2 1 \, 0 200 25;
#X msg 469 112 80;
#X msg 516 112 50;
#X connect 0 0 13 0;
#X connect 3 0 4 0;
#X connect 4 0 6 0;
#X connect 5 0 4 0;
#X connect 14 0 15 0;
#X connect 15 0 19 0;
#X connect 15 0 25 0;
#X connect 16 0 17 0;
#X connect 16 0 17 1;
#X connect 18 0 16 1;
#X connect 19 0 26 0;
#X connect 20 0 16 0;
#X connect 21 0 22 0;
#X connect 22 0 20 0;
#X connect 23 0 16 0;
#X connect 24 0 18 0;
#X connect 25 0 21 0;
#X connect 25 0 24 0;
#X connect 26 0 24 0;
#X connect 26 0 21 0;
